<svg xmlns="http://www.w3.org/2000/svg" viewBox="0 0 512 512">
	<path fill="#057" d="M0 142h256v-122h-222c-13 0-34 21-34 34z"/>
	<path fill="#036" d="M256 143h256v-88c0-15-18-35-33-35h-223z"/>
	<path fill="#AEF" d="M0 142h136v350h-99c-16 0-37-21-37-37z"/>
	<path fill="#EFF" d="M135 142h122v350h-122z"/>
	<path fill="#EEF" d="M256 142h256v315c0 14-21 35-35 35h-221z"/>
	<circle fill="#FB2" cx="65" cy="81" r="14.5"/>
	<circle fill="#2C4" cx="125" cy="81" r="14.5"/>
	<circle fill="#F55" cx="447" cy="81" r="14.5"/>	
	<circle fill="#39F" cx="68" cy="247" r="14.5"/>
	<circle fill="#69F" cx="68" cy="307" r="14.5"/>
	<circle fill="#99F" cx="68" cy="367" r="14.5"/>
	<path fill="#49F" d="M224 221h33v91h-33c-7 0-14-7-14-14v-63c0-7 7-14 14-14zM224 342h33v91h-33c-7 0-14-7-14-14v-63c0-7 7-14 14-14z"/>
	<path fill="#55D" d="M256 221h31c7 0 14 7 14 14v63c0 7-7 14-14 14h-31zM256 342h31c7 0 14 7 14 14v63c0 7-7 14-14 14h-31z"/>
	<path fill="#55D" d="M345 342h63c7 0 14 7 14 14v63c0 7-7 14-14 14h-63c-7 0-14-7-14-14v-63c0-7 7-14 14-14z"/>
	<path fill="#F90" d="M398 200l44.55 44.55c4.95 4.95 4.95 14.85 0 19.8l-44.55 44.55c-4.95 4.95-14.85 4.95-19.8 0l-44.55-44.55c-4.95-4.95-4.95-14.85 0-19.8l44.55-44.55c4.95-4.95 14.85-4.95 19.8 0z"/>
</svg>